<svg class="fig" viewBox="0 0 1432 330" role="img" aria-label="조화평균 등고선: 한 축이 낮으면 전체 점수가 낮게 유지된다">
          <line x1="120" y1="270" x2="800" y2="270" stroke="#D6DCE4" stroke-width="2"/>
          <line x1="120" y1="270" x2="120" y2="20" stroke="#D6DCE4" stroke-width="2"/>
          <text x="460" y="298" text-anchor="middle" font-size="19" fill="#6B7484">AUC_OAA →</text>
          <text x="0" y="34" font-size="19" fill="#6B7484">Underthinking</text>
          <text x="0" y="60" font-size="19" fill="#6B7484">정확도 ↑</text>
          <path d="M289,58 L340,148 L391,174 L443,186 L494,193 L545,198 L596,201 L647,203 L699,205 L750,207" fill="none" stroke="#DCD7EE" stroke-width="3.5"/>
          <path d="M404,33 L455,90 L507,117 L558,133 L609,144 L660,151 L711,157 L750,160" fill="none" stroke="#B9AFDB" stroke-width="3.5"/>
          <path d="M558,24 L609,54 L660,74 L711,89 L750,97" fill="none" stroke="#8578BC" stroke-width="3.5"/>
          <text x="766" y="212" font-size="18" fill="#9AA3B0">F1 = 0.4</text>
          <text x="766" y="164" font-size="18" fill="#9AA3B0">F1 = 0.6</text>
          <text x="766" y="101" font-size="18" fill="#8578BC" font-weight="700">F1 = 0.8</text>
          <text x="880" y="52" font-size="20" fill="#6B7484">한 축이 0에 가까우면 다른 축이</text>
          <text x="880" y="82" font-size="20" fill="#6B7484">아무리 높아도 전체는 낮게 남는다.</text>
          <text x="880" y="146" font-size="20" font-weight="700" fill="#C4788A">과대생각만 줄인 모델은</text>
          <text x="880" y="176" font-size="20" font-weight="700" fill="#C4788A">여기서 걸러진다.</text>
          <text x="880" y="240" font-size="20" fill="#9AA3B0">33개 모델 중 1위 o3 71.1% ·</text>
          <text x="880" y="270" font-size="20" fill="#9AA3B0">오픈웨이트 1위 GPT-OSS-120B 68.3%</text>
          <text x="0" y="326" font-size="15" fill="#9AA3B0">등고선은 조화평균 H(x, y) = 2xy/(x+y)의 본 발표 작도. 개별 모델 좌표는 미표시.</text>
        </svg>
